<svg width="1500" height="1500" viewBox="0 0 1500 1500" class="icon" xmlns="http://www.w3.org/2000/svg"><path fill="#1B9CFC" d="M0 0h1500v1500H0z"/><path d="M257.398 749.991a476.817 476.817 0 1 0 953.634 0 476.817 476.817 0 1 0-953.634 0" fill="#FFDB6C"/><path d="M836.392 1156.425c-263.338 0-476.815-213.477-476.815-476.814 0-140.691 60.946-267.132 157.865-354.408C363.075 404.129 257.398 564.723 257.398 750c0 263.338 213.477 476.815 476.815 476.815 122.647 0 234.463-46.322 318.95-122.403-65.037 33.25-138.711 52.012-216.771 52.012" fill="#FFB04C"/><path d="M529.304 756.837c-35.41 0-64.119 28.706-64.119 64.114h128.233c.004-35.41-28.702-64.114-64.114-64.114m559.263 0c-35.41 0-64.118 28.706-64.118 64.114h128.231c0-35.41-28.706-64.114-64.114-64.114" fill="#F9A880"/><path d="M459.761 491.95c124.501-28.575 225.288-18.74 336.93 7.278 16.556 3.856 34.044 8.158 52.517 8.722 30.76.942 65.338-6.714 95.15-14.205 117.7-29.566 209.645-14.188 298.248 4.745l-6.546 52.36c-13.832.306-18.182 6.756-22.134 19.346-20.68 65.89-3.068 179.261-155.957 165.93-100.58-8.77-129.385-36.327-177.321-157.492-4.078-10.306-6.73-27.338-30.022-26.708-13.152.354-24.915 2.68-29.017 25.53-7.646 42.576-65.786 158.259-183.83 158.13-104.265-.111-144.04-54.231-148.788-173.486-.59-14.806-13.492-17.618-21.234-17.792z" fill="#56586F"/><path d="m640.564 475.47-72.812 248.31c19.162 7.885 42.292 11.777 70.028 11.805.488 0 .97-.018 1.458-.02l74.08-252.636c-24.227-3.664-48.35-6.228-72.754-7.46m452.795 2.011c-24.232-.776-49.386 0-75.806 2.95L952.55 702.107c17.776 14.928 38.762 23.598 66.469 28.894z" fill="#737891"/><path d="M833.54 1099.317c-106.593 0-193.006-86.412-193.006-193.005h386.01c.003 106.593-86.41 193.005-193.005 193.005" fill="#7F184C"/><path d="M687.627 906.308v30.128c0 12.704 10.298 23 23 23H956.45c12.704 0 23-10.298 23-23v-30.128z" fill="#F2F2F2"/><path d="M837.592 1019.243c-52.173-24.24-110.067-20.717-157.015 4.422 35.278 45.98 90.754 75.65 153.186 75.65a192.3 192.3 0 0 0 77.345-16.17c-17.376-26.886-42.292-49.394-73.516-63.902" fill="#FC4C59"/><path d="M1246.658 479.52c-92.633-19.79-185.813-35.035-307.03-4.587-30.182 7.584-61.994 14.474-89.83 13.63-15.553-.476-31.053-4.096-46.043-7.602l-2.664-.624c-97.266-22.67-206.465-39.242-345.672-7.294a19.4 19.4 0 0 0-14.836 21.835l8 52.36a19.396 19.396 0 0 0 18.74 16.462c.95.02 1.73.116 2.328.23 2.75 66.008 15.936 111.137 41.477 141.965 27.314 32.968 68.734 49.026 126.628 49.086h.218c71.189 0 119.585-37.84 147.655-69.604 31.478-35.619 50.343-78.149 55.075-104.499 1.238-6.892 2.956-8.602 2.964-8.61.282-.184 1.66-.8 7.49-.956 6.04-.158 6.262-.162 9.702 9.646.592 1.688 1.164 3.308 1.758 4.806 23.394 59.132 43.932 101.2 73.998 128.193 31.794 28.546 70.837 37.23 119.673 41.488q13.202 1.153 25.284 1.154c48.494 0 83.572-13.95 106.79-42.338.59-.722 1.123-1.47 1.689-2.2a464 464 0 0 1 1.578 37.938c0 252.221-205.198 457.417-457.417 457.417S276.794 1002.222 276.794 750 481.99 292.584 734.21 292.584c101.06 0 196.847 32.29 277.004 93.38 8.52 6.495 20.694 4.85 27.184-3.67 6.494-8.521 4.852-20.693-3.67-27.187-86.97-66.28-190.89-101.317-300.52-101.317C460.599 253.788 238 476.39 238 750.001s222.6 496.213 496.209 496.213c273.614 0 496.213-222.6 496.213-496.213 0-36.18-3.96-72.218-11.682-107.253 1.916-8.998 3.5-17.934 5.014-26.564 2.584-14.68 5.022-28.548 8.674-40.178.988-3.142 1.696-4.792 2.12-5.628.44-.06 1.074-.118 1.938-.138a19.396 19.396 0 0 0 18.818-16.986l6.544-52.36a19.39 19.39 0 0 0-15.19-21.375m-28.152 55.36c-15.966 6.82-20.744 22.038-23.09 29.508-4.404 14.042-7.058 29.116-9.864 45.078-1.282 7.29-2.552 14.458-3.95 21.428a19.3 19.3 0 0 0-2.494 11.466c-11.195 47.157-33.233 81.96-119.455 74.445-91.15-7.948-115.22-29.676-160.97-145.305-.413-1.048-.805-2.18-1.217-3.36-3.764-10.738-12.478-35.624-45.532-35.624q-.902 0-1.828.026c-11.034.298-40.337 1.086-47.587 41.49-6.546 36.456-59.75 142.163-164.55 142.163h-.169c-89.856-.098-124.934-42.07-129.424-154.86-.62-15.657-9.54-27.72-23.465-33.197l-3.22-21.074c123.265-24.95 222.042-9.574 310.598 11.062l2.64.616c16.058 3.756 34.26 8.01 53.685 8.604 32.644.99 67.57-6.514 100.47-14.78 105.683-26.549 189.731-15.626 272.06 1.25z"/><path d="M1045.943 906.308c0-10.712-8.682-19.398-19.398-19.398h-386.01a19.396 19.396 0 0 0-19.399 19.398c0 117.12 95.283 212.403 212.403 212.403s212.404-95.282 212.404-212.403m-384.935 19.398h345.065c-9.673 86.635-83.359 154.21-172.532 154.21s-162.86-67.575-172.533-154.21m390.239-513.465a19.398 19.398 0 1 0 38.796 0 19.398 19.398 0 1 0-38.796 0"/></svg>